<svg version="1.2" xmlns="http://www.w3.org/2000/svg" viewBox="0 0 276 308" width="276" height="308">
	<title>9795629_755-ai</title>
	<style>
		.s0 { fill: #00ff00 } 
	</style>
	<g id="_Artboards_">
	</g>
	<g id="Layer 1">
		<path id="&lt;Compound Path&gt;" fill-rule="evenodd" class="s0" d="m275.4 60.9c0 32-25.2 58.2-56.8 59.9-2.3 0.6-22.9 0.5-31.9 0.5 40.9 33.6 16.7 99.8-35.7 99.8h-30v26.1c0 33.1-26.9 60.1-60 60.1-32 0-58.3-25.2-60-56.8-0.7-2.8-0.4 11-0.4-189.6 0-33.1 26.9-60.1 60.1-60.1 6.4 0 148.8 0 154.6 0 33.1 0 60.1 27 60.1 60.1zm-124.4 60.2q0 0 0 0c-57.2 0-80.8 0.3-91.4 0-43.3-1.2-46.3-37.3-46.3-37.3v162c0 0 3-36.1 46.3-37.3 10.3-0.3 63.9 0 91.4 0q0 0 0 0c24.1 0 43.6-19.6 43.6-43.7q0 0 0 0 0 0 0 0c0-24.1-19.5-43.7-43.6-43.7z"/>
	</g>
</svg>